<svg width="23" height="23" viewBox="0 0 23 23" fill="none" xmlns="http://www.w3.org/2000/svg">
<path fill-rule="evenodd" clip-rule="evenodd" d="M11.2056 2.4386C6.235 2.4386 2.20557 6.46804 2.20557 11.4386C2.20557 16.4092 6.235 20.4386 11.2056 20.4386C16.1761 20.4386 20.2056 16.4092 20.2056 11.4386C20.2056 6.46804 16.1761 2.4386 11.2056 2.4386ZM0.205566 11.4386C0.205566 5.36347 5.13043 0.438599 11.2056 0.438599C17.2807 0.438599 22.2056 5.36347 22.2056 11.4386C22.2056 17.5137 17.2807 22.4386 11.2056 22.4386C5.13043 22.4386 0.205566 17.5137 0.205566 11.4386Z" fill="white"/>
<path fill-rule="evenodd" clip-rule="evenodd" d="M16.1527 6.49149C16.4205 6.75932 16.514 7.15549 16.3942 7.51483L14.2743 13.8748C14.1747 14.1734 13.9404 14.4077 13.6418 14.5073L7.28179 16.6273C6.92246 16.7471 6.52629 16.6535 6.25846 16.3857C5.99063 16.1179 5.89711 15.7217 6.01688 15.3624L8.13688 9.00237C8.23642 8.70377 8.47073 8.46945 8.76934 8.36992L15.1293 6.24992C15.4887 6.13014 15.8848 6.22366 16.1527 6.49149ZM9.87614 10.1092L8.54671 14.0975L12.535 12.768L13.8644 8.77974L9.87614 10.1092Z" fill="white"/>
</svg>
